{
  "accessors": [
    {
      "bufferView": 0,
      "componentType": 5126,
      "count": 65,
      "max": [
        30.0,
        30.0,
        30.0
      ],
      "min": [
        -30.0,
        -30.0,
        -1.3113416343912832e-06
      ],
      "name": "Sphere001/POSITION",
      "type": "VEC3"
    },
    {
      "bufferView": 0,
      "byteOffset": 12,
      "componentType": 5126,
      "count": 65,
      "name": "Sphere001/NORMAL",
      "type": "VEC3"
    },
    {
      "bufferView": 0,
      "byteOffset": 24,
      "componentType": 5126,
      "count": 65,
      "name": "Sphere001/TEXCOORD_0",
      "type": "VEC2"
    },
    {
      "bufferView": 1,
      "componentType": 5125,
      "count": 336,
      "name": "Sphere001/INDICES",
      "type": "SCALAR"
    }
  ],
  "asset": {
    "copyright": "Copyright (c) 2018-2020 Chukong Technologies Inc.",
    "generator": "FBX-glTF-conv",
    "version": "2.0"
  },
  "bufferViews": [
    {
      "buffer": 0,
      "byteLength": 2080,
      "byteStride": 32,
      "name": "Sphere001",
      "target": 34962
    },
    {
      "buffer": 0,
      "byteLength": 1344,
      "byteOffset": 2080
    }
  ],
  "buffers": [
    {
      "byteLength": 3424,
      "uri": "out.bin"
    }
  ],
  "extras": {
    "FBX-glTF-conv": {
      "animationFrameRate": 30.0
    }
  },
  "images": [
    {
      "extras": {
        "FBX-glTF-conv": {
          "fileName": "D:\\Client\\ArtsClient\\Assets\\GameAssets\\Effect\\Texture\\Glow\\glow_00122.png",
          "relativeFileName": "D:\\Client\\ArtsClient\\Assets\\GameAssets\\Effect\\Texture\\Glow\\glow_00122.png"
        }
      },
      "name": "贴图 #6",
      "uri": "data:image/png;base64,"
    }
  ],
  "materials": [
    {
      "name": "Material #51",
      "pbrMetallicRoughness": {
        "baseColorTexture": {
          "index": 0
        },
        "metallicFactor": 0.4000000059604645,
        "roughnessFactor": 0.7071067690849304
      }
    }
  ],
  "meshes": [
    {
      "name": "Sphere001",
      "primitives": [
        {
          "attributes": {
            "NORMAL": 1,
            "POSITION": 0,
            "TEXCOORD_0": 2
          },
          "indices": 3,
          "material": 0
        }
      ]
    }
  ],
  "nodes": [
    {
      "mesh": 0,
      "name": "Sphere001",
      "rotation": [
        -0.7071067690849304,
        -0.0,
        0.0,
        0.7071067690849304
      ]
    }
  ],
  "samplers": [
    {}
  ],
  "scenes": [
    {
      "nodes": [
        0
      ]
    }
  ],
  "textures": [
    {
      "name": "贴图 #6",
      "sampler": 0,
      "source": 0
    }
  ]
}