{
  "accessors": [
    {
      "bufferView": 0,
      "componentType": 5126,
      "count": 8,
      "max": [
        89.09591674804688,
        89.09591674804688,
        89.09591674804688
      ],
      "min": [
        -89.09591674804688,
        -89.09591674804688,
        -89.09591674804688
      ],
      "name": "Plane002/POSITION",
      "type": "VEC3"
    },
    {
      "bufferView": 0,
      "byteOffset": 12,
      "componentType": 5126,
      "count": 8,
      "name": "Plane002/NORMAL",
      "type": "VEC3"
    },
    {
      "bufferView": 0,
      "byteOffset": 24,
      "componentType": 5126,
      "count": 8,
      "name": "Plane002/TEXCOORD_0",
      "type": "VEC2"
    },
    {
      "bufferView": 1,
      "componentType": 5125,
      "count": 12,
      "name": "Plane002/INDICES",
      "type": "SCALAR"
    }
  ],
  "asset": {
    "copyright": "Copyright (c) 2018-2020 Chukong Technologies Inc.",
    "generator": "FBX-glTF-conv",
    "version": "2.0"
  },
  "bufferViews": [
    {
      "buffer": 0,
      "byteLength": 256,
      "byteStride": 32,
      "name": "Plane002",
      "target": 34962
    },
    {
      "buffer": 0,
      "byteLength": 48,
      "byteOffset": 256
    }
  ],
  "buffers": [
    {
      "byteLength": 304,
      "uri": "out.bin"
    }
  ],
  "extras": {
    "FBX-glTF-conv": {
      "animationFrameRate": 30.0
    }
  },
  "images": [
    {
      "extras": {
        "FBX-glTF-conv": {
          "fileName": "D:\\LearningFrameWork\\MobaYan\\Moba\\Src\\Client\\assets\\resources\\Battle\\Effects\\FX\\Model",
          "relativeFileName": "..\\Model"
        }
      },
      "name": "Map #1",
      "uri": "data:image/png;base64,"
    }
  ],
  "materials": [
    {
      "name": "01 - Default",
      "pbrMetallicRoughness": {
        "baseColorTexture": {
          "index": 0
        },
        "metallicFactor": 0.4000000059604645,
        "roughnessFactor": 0.7071067690849304
      }
    }
  ],
  "meshes": [
    {
      "name": "Plane002",
      "primitives": [
        {
          "attributes": {
            "NORMAL": 1,
            "POSITION": 0,
            "TEXCOORD_0": 2
          },
          "indices": 3,
          "material": 0
        }
      ]
    }
  ],
  "nodes": [
    {
      "mesh": 0,
      "name": "Plane002",
      "rotation": [
        -0.27059802412986755,
        -0.27059802412986755,
        0.6532815098762512,
        0.6532815098762512
      ],
      "scale": [
        0.02539999969303608,
        0.02539999783039093,
        0.02539999783039093
      ]
    }
  ],
  "samplers": [
    {}
  ],
  "scenes": [
    {
      "nodes": [
        0
      ]
    }
  ],
  "textures": [
    {
      "name": "Map #1",
      "sampler": 0,
      "source": 0
    }
  ]
}