{
  "accessors": [
    {
      "bufferView": 0,
      "componentType": 5126,
      "count": 70,
      "max": [
        21.18916893005371,
        12.699999809265137,
        12.69999885559082
      ],
      "min": [
        -4.2108330726623535,
        -12.699999809265137,
        -12.70000171661377
      ],
      "name": "shizimianpian/POSITION",
      "type": "VEC3"
    },
    {
      "bufferView": 0,
      "byteOffset": 12,
      "componentType": 5126,
      "count": 70,
      "name": "shizimianpian/NORMAL",
      "type": "VEC3"
    },
    {
      "bufferView": 0,
      "byteOffset": 24,
      "componentType": 5126,
      "count": 70,
      "name": "shizimianpian/TEXCOORD_0",
      "type": "VEC2"
    },
    {
      "bufferView": 0,
      "byteOffset": 32,
      "componentType": 5126,
      "count": 70,
      "name": "shizimianpian/COLOR_0",
      "type": "VEC4"
    },
    {
      "bufferView": 1,
      "componentType": 5125,
      "count": 288,
      "name": "shizimianpian/INDICES",
      "type": "SCALAR"
    }
  ],
  "asset": {
    "copyright": "Copyright (c) 2018-2020 Chukong Technologies Inc.",
    "generator": "FBX-glTF-conv",
    "version": "2.0"
  },
  "bufferViews": [
    {
      "buffer": 0,
      "byteLength": 3360,
      "byteStride": 48,
      "name": "shizimianpian",
      "target": 34962
    },
    {
      "buffer": 0,
      "byteLength": 1152,
      "byteOffset": 3360
    }
  ],
  "buffers": [
    {
      "byteLength": 4512,
      "uri": "out.bin"
    }
  ],
  "extras": {
    "FBX-glTF-conv": {
      "animationFrameRate": 30.0
    }
  },
  "images": [
    {
      "extras": {
        "FBX-glTF-conv": {
          "fileName": "E:\\Effect\\new\\Assets\\Resource\\Effect\\common\\Te\\Particle_Trail_18.png",
          "relativeFileName": "..\\..\\..\\..\\..\\..\\..\\Effect\\new\\Assets\\Resource\\Effect\\common\\Te\\Particle_Trail_18.png"
        }
      },
      "name": "贴图 #1",
      "uri": "data:image/png;base64,"
    }
  ],
  "materials": [
    {
      "alphaMode": "BLEND",
      "name": "Material #25",
      "pbrMetallicRoughness": {
        "baseColorTexture": {
          "index": 0
        },
        "metallicFactor": 0.4000000059604645,
        "roughnessFactor": 0.7071067690849304
      }
    }
  ],
  "meshes": [
    {
      "name": "shizimianpian",
      "primitives": [
        {
          "attributes": {
            "COLOR_0": 3,
            "NORMAL": 1,
            "POSITION": 0,
            "TEXCOORD_0": 2
          },
          "indices": 4,
          "material": 0
        }
      ]
    }
  ],
  "nodes": [
    {
      "mesh": 0,
      "name": "shizimianpian",
      "rotation": [
        5.760116650321834e-08,
        -0.7071067094802856,
        5.76011558450773e-08,
        0.7071068286895752
      ],
      "scale": [
        0.03937007859349251,
        0.03937007859349251,
        0.03937007859349251
      ],
      "translation": [
        -3.7204922476163915e-10,
        0.0,
        0.16578033566474915
      ]
    }
  ],
  "samplers": [
    {}
  ],
  "scenes": [
    {
      "nodes": [
        0
      ]
    }
  ],
  "textures": [
    {
      "name": "贴图 #1",
      "sampler": 0,
      "source": 0
    }
  ]
}