{
  "accessors": [
    {
      "bufferView": 0,
      "componentType": 5126,
      "count": 112,
      "max": [
        -0.20368105173110962,
        1.0662357807159424,
        0.2687867283821106
      ],
      "min": [
        -1.0821858644485474,
        -1.0639288425445557,
        -0.2687866985797882
      ],
      "name": "Plane001/POSITION",
      "type": "VEC3"
    },
    {
      "bufferView": 0,
      "byteOffset": 12,
      "componentType": 5126,
      "count": 112,
      "name": "Plane001/NORMAL",
      "type": "VEC3"
    },
    {
      "bufferView": 0,
      "byteOffset": 24,
      "componentType": 5126,
      "count": 112,
      "name": "Plane001/TEXCOORD_0",
      "type": "VEC2"
    },
    {
      "bufferView": 1,
      "componentType": 5125,
      "count": 546,
      "name": "Plane001/INDICES",
      "type": "SCALAR"
    }
  ],
  "asset": {
    "copyright": "Copyright (c) 2018-2020 Chukong Technologies Inc.",
    "generator": "FBX-glTF-conv",
    "version": "2.0"
  },
  "bufferViews": [
    {
      "buffer": 0,
      "byteLength": 3584,
      "byteStride": 32,
      "name": "Plane001",
      "target": 34962
    },
    {
      "buffer": 0,
      "byteLength": 2184,
      "byteOffset": 3584
    }
  ],
  "buffers": [
    {
      "byteLength": 5768,
      "uri": "out.bin"
    }
  ],
  "extras": {
    "FBX-glTF-conv": {
      "animationFrameRate": 30.0
    }
  },
  "images": [
    {
      "extras": {
        "FBX-glTF-conv": {
          "fileName": "E:\\TheGodPlan\\Assets\\Resource\\Effect\\common\\test_liang\\texture\\火影忍者OL\\trail_11016.png",
          "relativeFileName": "..\\..\\..\\..\\..\\..\\..\\..\\TheGodPlan\\Assets\\Resource\\Effect\\common\\test_liang\\texture\\火影忍者OL\\trail_11016.png"
        }
      },
      "name": "贴图 #1",
      "uri": "data:image/png;base64,"
    }
  ],
  "materials": [
    {
      "alphaMode": "BLEND",
      "name": "Material #25",
      "pbrMetallicRoughness": {
        "baseColorFactor": [
          1.0,
          1.0,
          1.0,
          0.0
        ],
        "baseColorTexture": {
          "index": 0
        },
        "metallicFactor": 0.4000000059604645,
        "roughnessFactor": 0.7071067690849304
      }
    }
  ],
  "meshes": [
    {
      "name": "Plane001",
      "primitives": [
        {
          "attributes": {
            "NORMAL": 1,
            "POSITION": 0,
            "TEXCOORD_0": 2
          },
          "indices": 3,
          "material": 0
        }
      ]
    }
  ],
  "nodes": [
    {
      "mesh": 0,
      "name": "Plane001",
      "rotation": [
        -0.7071070075035095,
        -1.2363443602225743e-07,
        -1.2363452128738572e-07,
        0.7071065306663513
      ]
    }
  ],
  "samplers": [
    {}
  ],
  "scenes": [
    {
      "nodes": [
        0
      ]
    }
  ],
  "textures": [
    {
      "name": "贴图 #1",
      "sampler": 0,
      "source": 0
    }
  ]
}