{
  "accessors": [
    {
      "bufferView": 0,
      "componentType": 5126,
      "count": 96,
      "max": [
        0.19624677300453186,
        0.13673648238182068,
        0.15056289732456207
      ],
      "min": [
        -0.19624677300453186,
        9.540557948639616e-05,
        -0.15056289732456207
      ],
      "name": "Plane003/POSITION",
      "type": "VEC3"
    },
    {
      "bufferView": 0,
      "byteOffset": 12,
      "componentType": 5126,
      "count": 96,
      "name": "Plane003/NORMAL",
      "type": "VEC3"
    },
    {
      "bufferView": 0,
      "byteOffset": 24,
      "componentType": 5126,
      "count": 96,
      "name": "Plane003/TEXCOORD_0",
      "type": "VEC2"
    },
    {
      "bufferView": 0,
      "byteOffset": 32,
      "componentType": 5126,
      "count": 96,
      "name": "Plane003/COLOR_0",
      "type": "VEC4"
    },
    {
      "bufferView": 1,
      "componentType": 5125,
      "count": 450,
      "name": "Plane003/INDICES",
      "type": "SCALAR"
    }
  ],
  "asset": {
    "copyright": "Copyright (c) 2018-2020 Chukong Technologies Inc.",
    "generator": "FBX-glTF-conv",
    "version": "2.0"
  },
  "bufferViews": [
    {
      "buffer": 0,
      "byteLength": 4608,
      "byteStride": 48,
      "name": "Plane003",
      "target": 34962
    },
    {
      "buffer": 0,
      "byteLength": 1800,
      "byteOffset": 4608
    }
  ],
  "buffers": [
    {
      "byteLength": 6408,
      "uri": "out.bin"
    }
  ],
  "extras": {
    "FBX-glTF-conv": {
      "animationFrameRate": 30.0
    }
  },
  "images": [
    {
      "extras": {
        "FBX-glTF-conv": {
          "fileName": "D:\\Client\\ArtsClient\\Assets\\GameAssets\\Effect\\Texture\\Smoke\\changtiaoyan.png",
          "relativeFileName": "D:\\Client\\ArtsClient\\Assets\\GameAssets\\Effect\\Texture\\Smoke\\changtiaoyan.png"
        }
      },
      "name": "贴图 #60",
      "uri": "data:image/png;base64,"
    },
    {
      "extras": {
        "FBX-glTF-conv": {
          "fileName": "D:\\Client\\ArtsClient\\Assets\\GameAssets\\Effect\\Texture\\Smoke\\changtiaoyan.png",
          "relativeFileName": "D:\\Client\\ArtsClient\\Assets\\GameAssets\\Effect\\Texture\\Smoke\\changtiaoyan.png"
        }
      },
      "name": "贴图 #59",
      "uri": "data:image/png;base64,"
    }
  ],
  "materials": [
    {
      "alphaMode": "BLEND",
      "name": "Material #68",
      "pbrMetallicRoughness": {
        "baseColorFactor": [
          1.0,
          1.0,
          1.0,
          0.0
        ],
        "baseColorTexture": {
          "index": 1
        },
        "metallicFactor": 0.4000000059604645,
        "roughnessFactor": 0.7071067690849304
      }
    }
  ],
  "meshes": [
    {
      "name": "Plane003",
      "primitives": [
        {
          "attributes": {
            "COLOR_0": 3,
            "NORMAL": 1,
            "POSITION": 0,
            "TEXCOORD_0": 2
          },
          "indices": 4,
          "material": 0
        }
      ]
    }
  ],
  "nodes": [
    {
      "mesh": 0,
      "name": "Plane003",
      "translation": [
        9.536743306171047e-08,
        0.0,
        0.0
      ]
    }
  ],
  "samplers": [
    {}
  ],
  "scenes": [
    {
      "nodes": [
        0
      ]
    }
  ],
  "textures": [
    {
      "name": "贴图 #60",
      "sampler": 0,
      "source": 0
    },
    {
      "name": "贴图 #59",
      "sampler": 0,
      "source": 1
    }
  ]
}