{
  "accessors": [
    {
      "bufferView": 0,
      "componentType": 5126,
      "count": 50,
      "max": [
        0.38100001215934753,
        0.38100001215934753,
        0.38100001215934753
      ],
      "min": [
        -0.38100001215934753,
        -0.38100001215934753,
        -0.38100001215934753
      ],
      "name": "Plane002/POSITION",
      "type": "VEC3"
    },
    {
      "bufferView": 0,
      "byteOffset": 12,
      "componentType": 5126,
      "count": 50,
      "name": "Plane002/NORMAL",
      "type": "VEC3"
    },
    {
      "bufferView": 0,
      "byteOffset": 24,
      "componentType": 5126,
      "count": 50,
      "name": "Plane002/TEXCOORD_0",
      "type": "VEC2"
    },
    {
      "bufferView": 1,
      "componentType": 5125,
      "count": 192,
      "name": "Plane002/INDICES",
      "type": "SCALAR"
    }
  ],
  "asset": {
    "copyright": "Copyright (c) 2018-2020 Chukong Technologies Inc.",
    "generator": "FBX-glTF-conv",
    "version": "2.0"
  },
  "bufferViews": [
    {
      "buffer": 0,
      "byteLength": 1600,
      "byteStride": 32,
      "name": "Plane002",
      "target": 34962
    },
    {
      "buffer": 0,
      "byteLength": 768,
      "byteOffset": 1600
    }
  ],
  "buffers": [
    {
      "byteLength": 2368,
      "uri": "out.bin"
    }
  ],
  "extras": {
    "FBX-glTF-conv": {
      "animationFrameRate": 30.0
    }
  },
  "images": [
    {
      "extras": {
        "FBX-glTF-conv": {
          "fileName": "E:\\Effect\\new\\Assets\\Resource\\Effect\\common\\test_liang\\texture\\零境交错\\public_stars_01_X.png",
          "relativeFileName": "..\\texture\\零境交错\\public_stars_01_X.png"
        }
      },
      "name": "贴图 #1",
      "uri": "data:image/png;base64,"
    }
  ],
  "materials": [
    {
      "name": "Material #25",
      "pbrMetallicRoughness": {
        "baseColorTexture": {
          "index": 0
        },
        "metallicFactor": 0.4000000059604645,
        "roughnessFactor": 0.7071067690849304
      }
    }
  ],
  "meshes": [
    {
      "name": "Plane002",
      "primitives": [
        {
          "attributes": {
            "NORMAL": 1,
            "POSITION": 0,
            "TEXCOORD_0": 2
          },
          "indices": 3,
          "material": 0
        }
      ]
    }
  ],
  "nodes": [
    {
      "mesh": 0,
      "name": "Plane002",
      "rotation": [
        -0.7071067690849304,
        -0.0,
        0.0,
        0.7071067690849304
      ]
    }
  ],
  "samplers": [
    {}
  ],
  "scenes": [
    {
      "nodes": [
        0
      ]
    }
  ],
  "textures": [
    {
      "name": "贴图 #1",
      "sampler": 0,
      "source": 0
    }
  ]
}